# xmcd
#
# Track frame offsets: 
#        150
#        15695
#        31435
#        46390
#        64622
#        79750
#        97297
#        112190
#        125440
#        143812
#
# Disc length: 2220 seconds
#
# Revision: 2
# Processed by: cddbd v1.5.2PL0 Copyright (c) Steve Scherf et al.
# Submitted via: ExactAudioCopy v1.3
#
DISCID=8b08aa0a
DTITLE=Various Artist - Blues: The New Breed
DYEAR=1990
DGENRE=Blues
TTITLE0=Roy Rogers: Black Cat Bone
TTITLE1=Little Charlie and the Nightcats: Lottery
TTITLE2=Lou Ann Barton: You can have my Husband
TTITLE3=The Paladins: I've been Down Before
TTITLE4=Mike Morgan and the Crawl: I"m Worried
TTITLE5=Joanna Conner: He's Mine
TTITLE6=Anson Funderburgh and The Rockets: Chill Out
TTITLE7=Angela Strehli: It Hurts Me Too
TTITLE8=Lil' Ed and the Blue Imperials: Can't Let these Vlues Go
TTITLE9=Bobby Radcliff: Hard Road to Travel
EXTD=
EXTT0=
EXTT1=
EXTT2=
EXTT3=
EXTT4=
EXTT5=
EXTT6=
EXTT7=
EXTT8=
EXTT9=
PLAYORDER=
